<svg width="40" height="40" viewBox="0 0 40 40" fill="none" xmlns="http://www.w3.org/2000/svg">
<path d="M22.875 23.125C22.875 26.5625 25.6875 29.375 29.125 29.375C32.5625 29.375 35.375 26.5625 35.375 23.125C35.375 21.9687 35.0625 20.9063 34.5 19.9688H23.7188C23.1875 20.9063 22.875 21.9687 22.875 23.125Z" fill="white"/>
<path d="M31.625 23.125C31.625 25.5625 30.625 27.7812 29 29.375C29.0312 29.375 29.0937 29.375 29.125 29.375C32.5625 29.375 35.375 26.5625 35.375 23.125H31.625Z" fill="#AD5165"/>
<path d="M29.125 30.3125C28.5938 30.3125 28.1875 29.9062 28.1875 29.375C28.1875 28.8437 28.5938 28.4375 29.125 28.4375C32.0625 28.4375 34.4375 26.0625 34.4375 23.125C34.4375 22.3437 34.2813 21.5938 33.9375 20.9062H31.375C30.8438 20.9062 30.4375 20.5 30.4375 19.9688C30.4375 19.4375 30.8438 19.0312 31.375 19.0312H34.5C34.8438 19.0312 35.125 19.2188 35.3125 19.5C35.9688 20.5938 36.3125 21.875 36.3125 23.125C36.3125 27.0937 33.0625 30.3125 29.125 30.3125Z" fill="#444B54"/>
<path d="M32.25 36.5625C30 36.5625 28.1875 34.75 28.1875 32.5V29.375C28.1875 28.8438 28.5938 28.4375 29.125 28.4375C29.6562 28.4375 30.0625 28.8438 30.0625 29.375V32.5C30.0625 33.7188 31.0312 34.6875 32.25 34.6875C32.7812 34.6875 33.1875 35.0938 33.1875 35.625C33.1875 36.1562 32.75 36.5625 32.25 36.5625Z" fill="#444B54"/>
<path d="M32.25 36.5625H29.125C28.5938 36.5625 28.1875 36.1562 28.1875 35.625C28.1875 35.0938 28.5938 34.6875 29.125 34.6875H32.25C32.7812 34.6875 33.1875 35.0938 33.1875 35.625C33.1875 36.1562 32.75 36.5625 32.25 36.5625Z" fill="#444B54"/>
<path d="M10.375 4.375H6.9375V13.0938C6.9375 14.5 6.375 15.875 5.375 16.875C4.375 17.875 3.8125 19.2188 3.8125 20.6562V35.625H13.5V20.6562C13.5 19.25 12.9375 17.875 11.9375 16.875C10.9375 15.875 10.375 14.5312 10.375 13.0938V4.375Z" fill="#8FE5B5"/>
<path d="M6.9375 4.375H10.375V7.5H6.9375V4.375Z" fill="#FCF09D"/>
<path d="M5.375 16.8749C4.375 17.8749 3.8125 19.2187 3.8125 20.6562V35.6249H13.5V20.6562C13.5 19.2499 12.9375 17.8749 11.9375 16.8749C11.9375 16.8749 6.9375 16.7812 5.375 16.8749Z" fill="#FF697B"/>
<path d="M3.8125 21.3125H6.9375V32.4688H3.8125V21.3125Z" fill="white"/>
<path d="M13.4687 20.125C13.4687 20.0625 13.4375 20 13.4375 19.9375C13.4375 19.8125 13.4062 19.7188 13.375 19.5938C13.375 19.5313 13.3437 19.4688 13.3125 19.375C13.2812 19.2812 13.2812 19.1875 13.25 19.0625C13.2188 19 13.1875 18.9062 13.1875 18.8437C13.1562 18.75 13.125 18.6563 13.0938 18.5625C13.0625 18.5 13.0312 18.4375 13 18.3438C12.9687 18.25 12.9062 18.1563 12.875 18.0938C12.8438 18.0313 12.7812 17.9688 12.75 17.875C12.6875 17.7813 12.6562 17.7188 12.5938 17.625C12.5625 17.5625 12.5 17.5 12.4375 17.4375C12.375 17.375 12.3125 17.2812 12.2812 17.2187C12.2187 17.1562 12.1562 17.0938 12.125 17.0313C12.0625 16.9688 12 16.9063 11.9375 16.8438C11.9062 16.8438 11.0938 16.8437 10 16.8125C10.25 17.5 10.375 18.1875 10.375 18.9375V20.625V30.4062C10.375 32.25 8.875 33.7188 7.0625 33.7188H4.125V35.5937H13.5V20.6562C13.5 20.4687 13.4687 20.2813 13.4687 20.125Z" fill="#AD5165"/>
<path d="M13.5 36.5625H3.8125C3.28125 36.5625 2.875 36.1562 2.875 35.625V20.6562C2.875 20.125 3.28125 19.7188 3.8125 19.7188C4.34375 19.7188 4.75 20.125 4.75 20.6562V34.6875H12.5625V20.6562C12.5625 19.4688 12.0937 18.375 11.2812 17.5312C10.0937 16.3438 9.4375 14.7813 9.4375 13.0938V5.3125H7.875V13.0938C7.875 14.7813 7.21875 16.3438 6.03125 17.5312C5.65625 17.9062 5.0625 17.9062 4.71875 17.5312C4.34375 17.1562 4.34375 16.5625 4.71875 16.2188C5.5625 15.375 6 14.2812 6 13.0938V4.375C6 3.84375 6.40625 3.4375 6.9375 3.4375H10.375C10.9062 3.4375 11.3125 3.84375 11.3125 4.375V13.0938C11.3125 14.2812 11.7812 15.375 12.5938 16.1875C13.7812 17.375 14.4375 18.9375 14.4375 20.625V35.625C14.4375 36.1562 14 36.5625 13.5 36.5625Z" fill="#444B54"/>
<path d="M16.625 23.125C16.625 26.5625 19.4375 29.375 22.875 29.375C26.3125 29.375 29.125 26.5625 29.125 23.125C29.125 21.9687 28.8125 20.9063 28.25 19.9688H17.4688C16.9375 20.9063 16.625 21.9687 16.625 23.125Z" fill="white"/>
<path d="M16.625 23.125C16.625 26.5625 19.4375 29.375 22.875 29.375C26.3125 29.375 29.125 26.5625 29.125 23.125H16.625Z" fill="#FF697B"/>
<path d="M26 23.125C26 26.0312 24 28.4688 21.3125 29.1563C21.8125 29.2813 22.3438 29.375 22.875 29.375C26.3125 29.375 29.125 26.5625 29.125 23.125H26Z" fill="#AD5165"/>
<path d="M22.875 30.3125C18.9062 30.3125 15.6875 27.0937 15.6875 23.125C15.6875 21.8437 16.0313 20.5938 16.6875 19.5C16.9375 19.0625 17.5312 18.9062 17.9687 19.1562C18.4062 19.4062 18.5625 20 18.3125 20.4375C17.8125 21.25 17.5625 22.1875 17.5625 23.125C17.5625 26.0625 19.9375 28.4375 22.875 28.4375C25.8125 28.4375 28.1875 26.0625 28.1875 23.125C28.1875 22.3437 28.0312 21.5938 27.6875 20.9062H20.5938C20.0625 20.9062 19.6562 20.5 19.6562 19.9688C19.6562 19.4375 20.0625 19.0312 20.5938 19.0312H28.25C28.5937 19.0312 28.875 19.2188 29.0625 19.5C29.7187 20.5938 30.0625 21.875 30.0625 23.125C30.0625 27.0937 26.8125 30.3125 22.875 30.3125Z" fill="#444B54"/>
<path d="M26 36.5625C23.75 36.5625 21.9375 34.75 21.9375 32.5V29.375C21.9375 28.8438 22.3438 28.4375 22.875 28.4375C23.4062 28.4375 23.8125 28.8438 23.8125 29.375V32.5C23.8125 33.7188 24.7812 34.6875 26 34.6875C26.5312 34.6875 26.9375 35.0938 26.9375 35.625C26.9375 36.1562 26.5 36.5625 26 36.5625Z" fill="#444B54"/>
<path d="M26 36.5625H19.75C19.2188 36.5625 18.8125 36.1562 18.8125 35.625C18.8125 35.0938 19.2188 34.6875 19.75 34.6875H26C26.5312 34.6875 26.9375 35.0938 26.9375 35.625C26.9375 36.1562 26.5 36.5625 26 36.5625Z" fill="#444B54"/>
</svg>
