<svg width="41" height="40" viewBox="0 0 41 40" fill="none" xmlns="http://www.w3.org/2000/svg">
<path d="M1.92188 30.625L2.11406 30.7812C12.6523 39.6562 28.2836 39.5938 38.7578 30.625H1.92188Z" fill="#8CCFB9"/>
<path d="M22.7422 33.75L1.92188 30.625L6.72656 21.25H8.32812L16.3359 5.625L29.1484 30.625L22.7422 33.75Z" fill="#88A0BA"/>
<path d="M21.4609 25.5625L22.7422 33.75L29.1484 30.625L21.4609 25.5625Z" fill="#637488"/>
<path d="M19.5391 11.875L16.3359 5.625L11.5312 15H16.3359L19.5391 11.875Z" fill="white"/>
<path d="M36.3234 30.625H38.7578L29.0203 11.875L24.3438 21.25L29.1484 30.625H36.3234Z" fill="#88A0BA"/>
<path d="M25.9271 18.0759L24.3438 21.25L29.1484 30.625H31.0703L29.0844 21.25L25.9271 18.0759Z" fill="#6F8399"/>
<path d="M19.5391 11.875L16.3359 15V22.1875L21.4609 25.5625L29.1484 30.625L19.5391 11.875Z" fill="#6F8399"/>
<path d="M16.3359 5.625V15L19.5391 11.875L16.3359 5.625Z" fill="#CECFD0"/>
<path d="M29.0203 11.875L25.9133 18.125L29.0844 21.25L32.2555 18.125L29.0203 11.875Z" fill="white"/>
<path d="M29.1484 31.5625C28.7961 31.5625 28.4437 31.375 28.2836 31.0312L23.4789 21.6562C23.3508 21.4062 23.3508 21.0937 23.4789 20.8125L28.1555 11.4375C28.3156 11.125 28.6359 10.9062 29.0203 10.9062C29.4047 10.9062 29.725 11.0937 29.8852 11.4062L39.6227 30.1562C39.8469 30.625 39.6867 31.1875 39.2062 31.4062C38.7258 31.625 38.1492 31.4687 37.925 31L29.0203 13.9687L25.4008 21.25L29.9812 30.2187C30.2055 30.6875 30.0133 31.25 29.5648 31.4687C29.4367 31.5312 29.3086 31.5625 29.1484 31.5625Z" fill="#454B54"/>
<path d="M22.7422 34.6876C22.6781 34.6876 22.6461 34.6876 22.582 34.6876L12.1719 33.1251C11.6594 33.0314 11.275 32.5626 11.3711 32.0626C11.4672 31.5626 11.9477 31.1876 12.4602 31.2814L22.582 32.8126L28.7 29.8126C29.1805 29.5939 29.757 29.7814 29.9813 30.2189C30.2055 30.6876 30.0133 31.2501 29.5649 31.4689L23.1586 34.5939C23.0305 34.6564 22.9024 34.6876 22.7422 34.6876Z" fill="#454B54"/>
<path d="M29.1484 31.5625C28.7961 31.5625 28.4437 31.375 28.2836 31.0312L16.3359 7.71875L9.19294 21.6562C9.03278 21.9688 8.71247 22.1875 8.3281 22.1875H7.33513L2.78669 31.0312C2.56247 31.5 1.98591 31.6875 1.50544 31.4375C1.02497 31.2188 0.832785 30.6562 1.08903 30.1875L5.89372 20.8125C6.05388 20.5 6.37419 20.2812 6.75857 20.2812H7.75153L15.5031 5.1875C15.6633 4.875 15.9836 4.65625 16.3679 4.65625C16.7523 4.65625 17.0726 4.84375 17.2328 5.1875L30.0453 30.1875C30.2695 30.6562 30.0773 31.2188 29.6289 31.4375C29.4367 31.5312 29.3086 31.5625 29.1484 31.5625Z" fill="#454B54"/>
</svg>
