<svg width="40" height="40" viewBox="0 0 40 40" fill="none" xmlns="http://www.w3.org/2000/svg">
<path d="M30.375 24.125C35.5527 24.125 39.75 19.9277 39.75 14.75C39.75 9.57233 35.5527 5.375 30.375 5.375C25.1973 5.375 21 9.57233 21 14.75C21 19.9277 25.1973 24.125 30.375 24.125Z" fill="#71C2FF"/>
<path d="M36.0625 16.2812C32.8125 7.37495 23.5 4.2187 14.5625 7.4687C5.62501 10.7187 0.500007 19.125 3.75001 28.0312L4.75001 26.4375C5.78126 24.8125 7.75001 24.0625 9.62501 24.5625L11.6875 25.125L12.9688 23.2812C14.0313 21.75 15.9375 21.0312 17.75 21.5312L19.9063 22.125L21.1875 20.2812C22.25 18.75 24.1563 18.0312 25.9688 18.5312L28.125 19.125L29.3438 17.375C30.4375 15.7812 32.4375 15.0937 34.2813 15.6875L36.0625 16.2812Z" fill="white"/>
<path d="M3.78125 28.9687C3.75 28.9687 3.71875 28.9687 3.6875 28.9687C3.34375 28.9375 3.03124 28.6875 2.90624 28.3437C0.249994 21.0937 2.875 13.4687 9.59375 8.96873C10.0312 8.68748 10.5937 8.78123 10.9062 9.21873C11.2187 9.65623 11.0937 10.2187 10.6562 10.5312C5.15624 14.2187 2.74999 19.9375 4.09375 25.8125C4.71875 24.9062 5.5625 24.25 6.5625 23.8437C7.03125 23.6562 7.59375 23.9062 7.78125 24.375C7.96875 24.8437 7.71875 25.4062 7.25 25.5937C6.5625 25.875 5.96875 26.3437 5.59375 26.9687L4.59374 28.5625C4.37499 28.8125 4.09375 28.9687 3.78125 28.9687Z" fill="#444B54"/>
<path d="M11.6875 26.0937C11.6562 26.0937 11.5937 26.0937 11.5625 26.0937C11.2187 26.0625 10.9062 25.8125 10.8125 25.4687C9.43749 21.6875 8.90624 17.9687 9.24999 14.7187C9.31249 14.2187 9.78124 13.8437 10.2812 13.875C10.7812 13.9375 11.1562 14.4062 11.125 14.9062C10.8437 17.375 11.1562 20.1562 12 23.0625L12.1875 22.7812C13.4687 20.9062 15.8125 20.0625 18 20.6562L18.4062 20.7812L15.125 11.75C14.9375 11.25 15.1875 10.7187 15.6875 10.5625C16.1875 10.375 16.7187 10.625 16.875 11.125C16.875 11.125 20.625 21.4687 20.7812 21.8437C20.8125 21.9687 20.8437 22.0937 20.8437 22.2187C20.8125 22.6562 20.5 23.0312 20.0625 23.0937C19.8125 23.125 19.625 23.0937 19.5 23.0312L17.5 22.4687C16.0937 22.0625 14.5625 22.625 13.75 23.8437L12.4687 25.6875C12.2812 25.9375 12 26.0937 11.6875 26.0937Z" fill="#444B54"/>
<path d="M36.9375 15.9687C35.3125 11.5 32.0625 8.09375 27.7812 6.4375C23.9375 4.9375 19.5 4.90625 15.125 6.28125L14.9062 5.6875C14.7187 5.1875 14.1875 4.9375 13.7187 5.125C13.2187 5.3125 12.9687 5.84375 13.1562 6.3125L13.6875 7.78125C13.7812 8 13.9375 8.21875 14.1875 8.3125C14.4062 8.40625 14.6562 8.4375 14.9062 8.34375C19.125 6.8125 23.4375 6.75 27.125 8.1875C30.3125 9.4375 32.8125 11.6875 34.375 14.7812C32.1875 14.1562 29.8437 15 28.5625 16.875L28.3437 17.1875C27.0312 14.125 25.2812 11.5312 23.2812 9.59375C22.9062 9.25 22.3125 9.25 21.9687 9.625C21.625 10 21.625 10.5937 22 10.9375C23.8125 12.6562 25.3437 15 26.5625 17.75L26.2187 17.6562C25.125 17.3437 24 17.4062 22.9375 17.8125C22.4375 18 22.2187 18.5312 22.375 19.0312C22.5625 19.5312 23.0937 19.75 23.5937 19.5937C24.2812 19.3437 25 19.3125 25.7187 19.5L27.875 20.0937C27.9687 20.125 28.0312 20.125 28.125 20.125C28.4375 20.125 28.7187 19.9687 28.9062 19.7187L30.125 17.9687C31 16.7187 32.5312 16.1875 34 16.625L35.7812 17.1875C36.125 17.2812 36.5 17.1875 36.75 16.9375C37 16.6562 37.0625 16.2812 36.9375 15.9687Z" fill="#444B54"/>
<path d="M34.375 37.8125H26.625L22.1875 25.6562C22 25.1562 21.4687 24.9062 21 25.0937C20.5 25.2812 20.25 25.8125 20.4375 26.2812L24.625 37.8125H19.25C18.8437 37.8125 18.4687 37.7187 18.0937 37.5312L17.2812 37.125C16.0312 36.5 14.5625 36.5 13.3125 37.125C12.5937 37.4687 11.75 37.4687 11.0312 37.125C7.84374 35.5312 4.03124 35.8125 1.12499 37.9062L0.999988 38C0.593738 38.3125 0.468738 38.875 0.781238 39.3125C0.968738 39.5625 1.24999 39.7187 1.53124 39.7187C1.71874 39.7187 1.90624 39.6562 2.06249 39.5312L2.18749 39.4375C4.53124 37.75 7.59374 37.5312 10.1875 38.8125C11.4375 39.4375 12.9062 39.4375 14.1562 38.8125C14.875 38.4687 15.7187 38.4687 16.4375 38.8125L17.25 39.2187C17.875 39.5312 18.5625 39.6875 19.2187 39.6875H34.375C34.9062 39.6875 35.3125 39.2812 35.3125 38.75C35.3125 38.2187 34.9062 37.8125 34.375 37.8125Z" fill="#444B54"/>
<path d="M38.75 39.6875C39.2678 39.6875 39.6875 39.2678 39.6875 38.75C39.6875 38.2322 39.2678 37.8125 38.75 37.8125C38.2322 37.8125 37.8125 38.2322 37.8125 38.75C37.8125 39.2678 38.2322 39.6875 38.75 39.6875Z" fill="#444B54"/>
</svg>
