<svg width="40" height="40" viewBox="0 0 40 40" fill="none" xmlns="http://www.w3.org/2000/svg">
<g clip-path="url(#clip0_1_2795)">
<path d="M2.5 5.3125C2.5 5.3125 5.9375 32.5 22.1875 28.75L38.4375 25C22.1875 28.75 18.75 3.4375 18.75 3.4375L2.5 5.3125Z" fill="white"/>
<path d="M21.9062 22.8124C21.625 22.8124 21.3437 22.6874 21.1562 22.4374C19.7812 20.5937 18.5625 18.4062 17.5 15.9374C17.2812 15.4687 17.5 14.9062 18 14.7187C18.4687 14.4999 19.0312 14.7187 19.2187 15.2187C20.2187 17.5312 21.375 19.5937 22.6562 21.3437C22.9687 21.7499 22.875 22.3437 22.4687 22.6562C22.3125 22.7499 22.0937 22.8124 21.9062 22.8124Z" fill="#71C2FF"/>
<path d="M16.4062 11.0937C16 11.0937 15.625 10.8125 15.5 10.4062C15.25 9.53123 15 8.65623 14.8125 7.78123C14.6875 7.28123 15 6.78123 15.5 6.65623C16 6.53123 16.5 6.84373 16.625 7.34373C16.8125 8.18748 17.0625 9.06248 17.2812 9.87498C17.4375 10.375 17.125 10.9062 16.6562 11.0312C16.5937 11.0625 16.5 11.0937 16.4062 11.0937Z" fill="#71C2FF"/>
<path d="M39.3438 24.7812C39.2188 24.2812 38.7188 23.9687 38.2188 24.0937C34.8438 24.8749 31.7812 24.3437 29.1562 22.5312C24.6875 19.4687 22.1875 13.2812 20.9062 8.78119L27.0312 19.0312C27.2188 19.3124 27.5312 19.4999 27.8438 19.4999C28 19.4999 28.1875 19.4687 28.3125 19.3749C28.75 19.0937 28.9062 18.5312 28.625 18.0937L18.3125 0.78119C18.0312 0.34369 17.4688 0.18744 17.0312 0.46869C16.5938 0.74994 16.4375 1.31244 16.7188 1.74994L17.2812 2.68744L3.03125 4.31244L2.0625 2.65619C1.78125 2.18744 1.21875 2.06244 0.781251 2.31244C0.343751 2.56244 0.187501 3.15619 0.468751 3.59369L1.59375 5.49994C1.6875 6.24994 2.5 11.8749 4.875 17.5937C5.03125 17.9687 5.375 18.1874 5.75 18.1874C5.875 18.1874 6 18.1562 6.09375 18.1249C6.5625 17.9374 6.8125 17.3749 6.59375 16.9062C5.65625 14.6249 4.9375 12.3124 4.46875 10.3437L21.7188 39.2499C21.875 39.5312 22.1875 39.6874 22.5 39.6874C22.6562 39.6874 22.8438 39.6562 22.9688 39.5624C23.4062 39.3124 23.5625 38.7187 23.2812 38.2812L22.7812 37.4374L35.9062 33.8749L36.6875 35.1562C36.875 35.4374 37.1875 35.6249 37.5 35.6249C37.6562 35.6249 37.8438 35.5937 37.9688 35.4999C38.4062 35.2187 38.5625 34.6562 38.2812 34.2187L34.8438 28.4687C34.5625 28.0312 34 27.8749 33.5625 28.1562C33.125 28.4374 32.9688 28.9999 33.25 29.4374L34.9062 32.2187L21.7812 35.7812L18.375 29.9999C18.6562 30.0312 18.9062 30.0312 19.1875 30.0312C20.2188 30.0312 21.2812 29.9062 22.375 29.6562L38.625 25.9062C39.0625 25.8124 39.3438 25.4062 39.3438 24.9999C39.375 24.9374 39.375 24.8749 39.3438 24.7812ZM21.9688 27.8437C20.2813 28.2499 18.6562 28.2812 17.1562 27.9687L4.09375 6.09369L17.9688 4.49994C18.5625 7.81244 21 19.1874 28.0938 24.0937C29.125 24.8124 30.1875 25.3437 31.3125 25.7187L21.9688 27.8437Z" fill="#444B54"/>
<path d="M12.8438 25.9375C11.7813 25.125 10.7813 24.0625 9.84378 22.7813C9.81253 22.75 9.81253 22.75 9.78128 22.7188L10.2188 22.0625C10.5 21.625 10.375 21.0313 9.93753 20.7813C9.50003 20.5 8.90628 20.625 8.65628 21.0625L1.43753 32.3125C1.15628 32.75 1.28128 33.3438 1.71878 33.5938C1.87503 33.6875 2.06253 33.75 2.21878 33.75C2.53128 33.75 2.84378 33.5938 3.00003 33.3125L4.06253 31.6563L10.5938 30.6563C11.0938 30.5938 11.4688 30.0938 11.375 29.5938C11.2813 29.0938 10.8125 28.7188 10.3125 28.8125L5.40628 29.5625L8.68753 24.375C9.62503 25.5625 10.625 26.5938 11.6875 27.4063C11.8438 27.5313 12.0625 27.5938 12.25 27.5938C12.5313 27.5938 12.8125 27.4688 13 27.2188C13.3125 26.8438 13.25 26.25 12.8438 25.9375Z" fill="#444B54"/>
</g>
<defs>
<clipPath id="clip0_1_2795">
<rect width="40" height="40" fill="white"/>
</clipPath>
</defs>
</svg>
