<svg width="40" height="40" viewBox="0 0 40 40" fill="none" xmlns="http://www.w3.org/2000/svg">
<path d="M11.4062 30.9375V15.3125C11.4062 13.5938 12.8125 12.1875 14.5312 12.1875H9.84375H5.15625C6.875 12.1875 8.28125 13.5938 8.28125 15.3125V30.9375V31.0625C8.28125 32.7813 5.15625 34.1875 5.15625 34.1875H9.84375V34.0625H14.5312C14.5312 34.0625 11.4062 32.6563 11.4062 30.9375ZM22.3438 30.9375V15.3125C22.3438 13.5938 23.75 12.1875 25.4688 12.1875H20.7812H16.0938C17.8125 12.1875 19.2188 13.5938 19.2188 15.3125V30.9375V31.0625C19.2188 32.7813 16.0938 34.1875 16.0938 34.1875H20.7812V34.0625H25.4688C25.4688 34.0625 22.3438 32.6563 22.3438 30.9375ZM31.7188 30.9375V15.3125C31.7188 13.5938 33.125 12.1875 34.8438 12.1875H30.1562H25.4688C27.1875 12.1875 28.5938 13.5938 28.5938 15.3125V30.9375V31.0625C28.5938 32.7813 25.4688 34.1875 25.4688 34.1875H30.1562V34.0625H34.8438C34.8438 34.0625 31.7188 32.6563 31.7188 30.9375Z" fill="white"/>
<path d="M36.4062 37.1875H3.59375L5.15625 34.0625H34.8438L36.4062 37.1875ZM5.15625 9.0625H34.8438V12.1875H5.15625V9.0625Z" fill="#9FBAD3"/>
<path d="M5.15625 9.0625L20.7812 4.6875L34.8438 9.0625" fill="white"/>
<path d="M36.4062 38.125H3.59375C3.0625 38.125 2.65625 37.7188 2.65625 37.1875C2.65625 36.6562 3.0625 36.25 3.59375 36.25H36.4062C36.9375 36.25 37.3438 36.6562 37.3438 37.1875C37.3438 37.7188 36.9375 38.125 36.4062 38.125ZM34.8438 35H5.15625C4.625 35 4.21875 34.5938 4.21875 34.0625C4.21875 33.5312 4.625 33.125 5.15625 33.125H34.8438C35.375 33.125 35.7812 33.5312 35.7812 34.0625C35.7812 34.5938 35.375 35 34.8438 35Z" fill="#454B54"/>
<path d="M14.5312 35C12.2812 35 10.4688 33.1875 10.4688 30.9375V15.3125C10.4688 13.0625 12.2812 11.25 14.5312 11.25C15.0625 11.25 15.4688 11.6562 15.4688 12.1875C15.4688 12.7188 15.0625 13.125 14.5312 13.125C13.3125 13.125 12.3438 14.0938 12.3438 15.3125V30.9375C12.3438 32.1562 13.3125 33.125 14.5312 33.125C15.0625 33.125 15.4688 33.5312 15.4688 34.0625C15.4688 34.5938 15.0625 35 14.5312 35ZM8.28125 31.875C7.75 31.875 7.34375 31.4688 7.34375 30.9375V15.3125C7.34375 14.0938 6.375 13.125 5.15625 13.125C4.625 13.125 4.21875 12.7188 4.21875 12.1875C4.21875 11.6562 4.625 11.25 5.15625 11.25C7.40625 11.25 9.21875 13.0625 9.21875 15.3125V30.9375C9.21875 31.4688 8.8125 31.875 8.28125 31.875ZM25.4688 35C25.2188 35 24.9688 34.9062 24.8125 34.7188C24.625 34.5312 24.5312 34.3125 24.5312 34.0625C24.5312 33.8125 24.625 33.5625 24.8125 33.4062C25.1562 33.0625 25.7812 33.0625 26.125 33.4062C26.3125 33.5938 26.4062 33.8125 26.4062 34.0625C26.4062 34.3125 26.3125 34.5625 26.125 34.7188C25.9688 34.9062 25.7188 35 25.4688 35Z" fill="#454B54"/>
<path d="M25.4688 35C23.2188 35 21.4062 33.1875 21.4062 30.9375V15.3125C21.4062 13.0625 23.2188 11.25 25.4688 11.25C26 11.25 26.4062 11.6562 26.4062 12.1875C26.4062 12.7188 26 13.125 25.4688 13.125C24.25 13.125 23.2812 14.0938 23.2812 15.3125V30.9375C23.2812 32.1562 24.25 33.125 25.4688 33.125C26 33.125 26.4062 33.5312 26.4062 34.0625C26.4062 34.5938 26 35 25.4688 35ZM34.8438 35C34.5938 35 34.3438 34.9062 34.1875 34.7188C34 34.5312 33.9062 34.3125 33.9062 34.0625C33.9062 33.8125 34 33.5625 34.1875 33.4062C34.5313 33.0625 35.1562 33.0625 35.5 33.4062C35.6875 33.5938 35.7812 33.8125 35.7812 34.0625C35.7812 34.3125 35.6875 34.5625 35.5 34.7188C35.3438 34.9062 35.0938 35 34.8438 35Z" fill="#454B54"/>
<path d="M34.8438 35C32.5938 35 30.7812 33.1875 30.7812 30.9375V15.3125C30.7812 13.0625 32.5938 11.25 34.8438 11.25C35.375 11.25 35.7812 11.6562 35.7812 12.1875C35.7812 12.7188 35.375 13.125 34.8438 13.125C33.625 13.125 32.6562 14.0938 32.6562 15.3125V30.9375C32.6562 32.1562 33.625 33.125 34.8438 33.125C35.375 33.125 35.7812 33.5312 35.7812 34.0625C35.7812 34.5938 35.375 35 34.8438 35ZM28.5938 31.875C28.0625 31.875 27.6562 31.4688 27.6562 30.9375V15.3125C27.6562 14.0938 26.6875 13.125 25.4688 13.125C24.9375 13.125 24.5312 12.7188 24.5312 12.1875C24.5312 11.6562 24.9375 11.25 25.4688 11.25C27.7188 11.25 29.5312 13.0625 29.5312 15.3125V30.9375C29.5312 31.4688 29.125 31.875 28.5938 31.875ZM5.15625 13.125C4.625 13.125 4.21875 12.7188 4.21875 12.1875V9.0625C4.21875 8.53125 4.625 8.125 5.15625 8.125C5.6875 8.125 6.09375 8.53125 6.09375 9.0625V12.1875C6.09375 12.7188 5.6875 13.125 5.15625 13.125ZM16.0938 13.125H10.1562C9.625 13.125 9.21875 12.7188 9.21875 12.1875C9.21875 11.6562 9.625 11.25 10.1562 11.25H16.0938C16.625 11.25 17.0312 11.6562 17.0312 12.1875C17.0312 12.7188 16.625 13.125 16.0938 13.125Z" fill="#454B54"/>
<path d="M25.4688 13.125H21.0938C20.5625 13.125 20.1562 12.7188 20.1562 12.1875C20.1562 11.6562 20.5625 11.25 21.0938 11.25H25.4688C26 11.25 26.4062 11.6562 26.4062 12.1875C26.4062 12.7188 26 13.125 25.4688 13.125Z" fill="#454B54"/>
<path d="M34.8438 13.125H30.4688C29.9375 13.125 29.5313 12.7187 29.5313 12.1875C29.5313 11.6562 29.9375 11.25 30.4688 11.25H33.9063V9.74995L20.7813 5.6562L5.40628 9.9687C4.90628 10.0937 4.40628 9.81245 4.25003 9.31245C4.12503 8.81245 4.40628 8.2812 4.90628 8.1562L20.5313 3.7812C20.7188 3.7187 20.875 3.74995 21.0625 3.7812L35.125 8.1562C35.5313 8.2812 35.7813 8.6562 35.7813 9.06245V12.1875C35.7813 12.7187 35.375 13.125 34.8438 13.125Z" fill="#454B54"/>
<path d="M34.6875 10H5.15625C4.625 10 4.21875 9.59375 4.21875 9.0625C4.21875 8.53125 4.625 8.125 5.15625 8.125H34.6875C35.2188 8.125 35.625 8.53125 35.625 9.0625C35.625 9.59375 35.2188 10 34.6875 10ZM19.2188 31.875C18.6875 31.875 18.2812 31.4688 18.2812 30.9375V15.3125C18.2812 14.0938 17.3125 13.125 16.0938 13.125C15.5625 13.125 15.1562 12.7188 15.1562 12.1875C15.1562 11.6562 15.5625 11.25 16.0938 11.25C18.3438 11.25 20.1562 13.0625 20.1562 15.3125V30.9375C20.1562 31.4688 19.75 31.875 19.2188 31.875Z" fill="#454B54"/>
</svg>
