<svg width="40" height="40" viewBox="0 0 40 40" fill="none" xmlns="http://www.w3.org/2000/svg">
<path d="M37.1875 10.625L31.3125 5.9375C30.1562 5.03125 28.5625 5.03125 27.4062 5.9375L23.2812 9.25C22.1875 10.125 20.7812 10.625 19.375 10.625H4.375C3.5 10.625 2.8125 11.3125 2.8125 12.1875V37.1875C2.8125 38.0625 3.5 38.75 4.375 38.75H19.375C20.7812 38.75 22.1562 38.2813 23.2812 37.375L27.4375 34.0625C28.5938 33.1563 30.1875 33.1563 31.3438 34.0625L37.2188 38.75V10.625H37.1875Z" fill="white"/>
<path d="M37.1875 39.6875C36.9688 39.6875 36.7813 39.625 36.5938 39.4688L30.7188 34.7813C29.9063 34.125 28.7813 34.125 28 34.7813L23.875 38.125C23.4688 38.4375 22.875 38.375 22.5625 37.9688C22.25 37.5625 22.3125 36.9688 22.7188 36.6562L26.875 33.3438C28.375 32.1562 30.4688 32.1562 31.9375 33.3438L36.2813 36.8125V11.0625L30.75 6.65625C29.9375 6 28.8125 6 28.0313 6.65625L23.875 10C23.4688 10.3125 22.875 10.25 22.5625 9.84375C22.25 9.4375 22.3125 8.84375 22.7188 8.53125L26.875 5.21875C28.375 4.03125 30.4688 4.03125 31.9375 5.21875L37.8125 9.90625C38.0313 10.0938 38.1563 10.3438 38.1563 10.625V38.75C38.1563 39.125 37.9375 39.4375 37.625 39.5938C37.4688 39.6562 37.3125 39.6875 37.1875 39.6875Z" fill="#444B54"/>
<path d="M19.375 39.6875H4.375C3 39.6875 1.875 38.5625 1.875 37.1875V12.1875C1.875 10.8125 3 9.6875 4.375 9.6875H19.375C19.9062 9.6875 20.3125 10.0938 20.3125 10.625C20.3125 11.1562 19.9062 11.5625 19.375 11.5625H4.375C4.03125 11.5625 3.75 11.8438 3.75 12.1875V37.1875C3.75 37.5312 4.03125 37.8125 4.375 37.8125H19.375C19.9062 37.8125 20.3125 38.2188 20.3125 38.75C20.3125 39.2812 19.875 39.6875 19.375 39.6875Z" fill="#444B54"/>
<path d="M18.25 23.6249C17.3125 24.5624 15.75 24.1249 16.375 25.0624C17 25.9999 16.2187 27.9374 18.0937 27.1874C19.9687 26.4374 18.5625 26.9374 20.2812 25.2186C22 23.4999 22.9062 23.3436 20.7812 22.5311C19.125 21.9374 18.25 23.6249 18.25 23.6249Z" fill="#71C2FF"/>
<path d="M23.375 24.6874C22.5 25.9062 27.0938 29.6249 28.625 28.9062C31.2188 27.6874 32.9063 25.1562 32.9063 24.2187C32.9063 23.2812 31.6875 21.4687 27.5313 24.2812C26.375 25.1249 24.2813 23.4374 23.375 24.6874Z" fill="#71C2FF"/>
<path d="M25.2188 11.6875C24.3438 12.375 23.375 12.9063 22.3438 13.25C21.9375 13.75 21.5625 14.3438 21.2813 15.125C20.7188 16.5938 22.2813 20.625 24.1875 20.625C26.5938 20.625 27.75 15.7812 28.4688 15.7812C28.9375 15.7812 29.6563 17.25 30.5 18.3438C31.0625 19.0938 31.9375 19.5 32.875 19.5H34.0625V12.5625C34.0625 12.2813 33.9375 12 33.7188 11.8438L29.9688 8.84375C29.625 8.5625 29.125 8.5625 28.8125 8.84375L25.2188 11.6875Z" fill="#71C2FF"/>
<path d="M14.8438 22.4062C15.8438 21.4062 16.125 19.8749 15.625 18.9687C13.9688 15.9999 10.0625 17.5624 9.6875 20.7187C9.46875 22.5937 8.34375 24.5312 7.375 25.4999C7 25.8749 6.46875 26.0312 5.9375 25.9999V34.6874C5.9375 35.2187 6.34375 35.6249 6.875 35.6249H13.1562C13.25 35.5624 13.3438 35.4999 13.4375 35.4374C13.9375 35.0937 14.3438 34.6249 14.625 34.1249C14.9688 33.5312 15.375 32.8437 15.5625 32.1249C16.9062 26.9687 12.4375 26.7812 12.3125 25.6562C12.1563 24.3437 13.8125 23.4062 14.8438 22.4062Z" fill="#71C2FF"/>
</svg>
