<svg width="40" height="40" viewBox="0 0 40 40" fill="none" xmlns="http://www.w3.org/2000/svg">
<path d="M21.9063 11.3125L23.1875 7.5625C23.4063 6.9375 24.25 6.9375 24.4688 7.5625L27.7188 17.0938C27.8125 17.375 28.0625 17.5625 28.375 17.5625H38.1563C38.8125 17.5625 39.0938 18.4062 38.5625 18.7812L30.6563 24.6875C30.4375 24.8438 30.3438 25.1563 30.4063 25.4375L33.3438 34.9063C33.5313 35.5313 32.8438 36.0312 32.3125 35.6562L24.2188 29.9375C24 29.7813 23.6563 29.7813 23.4375 29.9375L15.3438 35.625C14.8125 36 14.125 35.5 14.3125 34.875L17.25 25.4063C17.3438 25.125 17.25 24.8438 17 24.6563L9.09376 18.7812C8.56251 18.4062 8.84376 17.5625 9.50001 17.5625H19.2813" fill="#EFDE97"/>
<path d="M4.375 27.8125C6.61866 27.8125 8.4375 25.9937 8.4375 23.75C8.4375 21.5063 6.61866 19.6875 4.375 19.6875C2.13134 19.6875 0.3125 21.5063 0.3125 23.75C0.3125 25.9937 2.13134 27.8125 4.375 27.8125Z" fill="#B5A809"/>
<path d="M3.4375 6.5625C5.16339 6.5625 6.5625 5.16339 6.5625 3.4375C6.5625 1.71161 5.16339 0.3125 3.4375 0.3125C1.71161 0.3125 0.3125 1.71161 0.3125 3.4375C0.3125 5.16339 1.71161 6.5625 3.4375 6.5625Z" fill="#B5A809"/>
<path d="M39.625 17.6562C39.4062 17 38.8125 16.5625 38.0938 16.5625H28.4687L25.2812 7.1875C25.0625 6.53125 24.4687 6.09375 23.75 6.09375C23.0625 6.09375 22.4375 6.53125 22.2187 7.1875L20.9375 10.9375C20.7812 11.4375 21.0312 11.9688 21.5312 12.125C22.0312 12.2812 22.5625 12.0313 22.7187 11.5313L23.75 8.5L26.75 17.3125C26.9687 17.9688 27.5937 18.4062 28.2812 18.4062H37.2812L30.0312 23.875C29.5 24.2812 29.25 25 29.4688 25.6562L32.1875 34.375L24.6875 29.0938C24.125 28.6875 23.375 28.6875 22.8125 29.0938L15.375 34.375L18.0938 25.6562C18.2812 25 18.0625 24.2812 17.5312 23.875L10.2188 18.4375H19.2188C19.75 18.4375 20.1562 18.0312 20.1562 17.5C20.1562 16.9688 19.75 16.5625 19.2188 16.5625H1.1875C0.65625 16.5625 0.25 16.9688 0.25 17.5C0.25 18.0312 0.65625 18.4375 1.1875 18.4375H7.84375C7.90625 18.8438 8.125 19.2188 8.46875 19.4688L16.2188 25.25L13.3438 34.5312C13.125 35.1875 13.375 35.9062 13.9375 36.3125C14.5 36.7187 15.25 36.7187 15.8125 36.3125L23.75 30.75L31.6875 36.3438C31.9688 36.5313 32.2812 36.6562 32.625 36.6562C32.9688 36.6562 33.2812 36.5625 33.5625 36.3438C34.125 35.9375 34.375 35.2188 34.1562 34.5625L31.2812 25.2812L39.0625 19.4688C39.625 19.0625 39.8438 18.3438 39.625 17.6562Z" fill="#444B54"/>
<path d="M9.4375 24.6875H4.3125C3.78125 24.6875 3.375 24.2812 3.375 23.75C3.375 23.2188 3.78125 22.8125 4.3125 22.8125H9.4375C9.96875 22.8125 10.375 23.2188 10.375 23.75C10.375 24.2812 9.96875 24.6875 9.4375 24.6875Z" fill="#444B54"/>
<path d="M17.0625 12.5H9.1875C8.65625 12.5 8.25 12.0938 8.25 11.5625C8.25 11.0312 8.65625 10.625 9.1875 10.625H17.0312C17.5625 10.625 17.9688 11.0312 17.9688 11.5625C17.9688 12.0938 17.5625 12.5 17.0625 12.5Z" fill="#444B54"/>
<path d="M10.8438 30.9375H7.28125C6.75 30.9375 6.34375 30.5312 6.34375 30C6.34375 29.4688 6.75 29.0625 7.28125 29.0625H10.8438C11.375 29.0625 11.7812 29.4688 11.7812 30C11.7812 30.5312 11.375 30.9375 10.8438 30.9375Z" fill="#444B54"/>
</svg>
