<svg width="40" height="40" viewBox="0 0 40 40" fill="none" xmlns="http://www.w3.org/2000/svg">
<g clip-path="url(#clip0_1_2806)">
<path d="M37.1875 28.125H2.8125V39.6875H37.1875V28.125Z" fill="white"/>
<path d="M15.6875 14.375V8.125H24.4375V14.375" fill="white"/>
<path d="M15.625 8.125C15.625 5.71875 17.5938 3.75 20 3.75C22.4062 3.75 24.375 5.71875 24.375 8.125H15.625Z" fill="#71C2FF"/>
<path d="M2.8125 28.125C2.8125 19.5 10.5 14.0625 20 14.0625C29.5 14.0625 37.1875 19.5 37.1875 28.125H2.8125Z" fill="#71C2FF"/>
<path d="M38.75 27.1875H38.0938C37.6562 20.5 32.625 15.375 25.3125 13.7188V8.125C25.3125 5.53125 23.4062 3.34375 20.9375 2.90625V1.25C20.9375 0.71875 20.5312 0.3125 20 0.3125C19.4688 0.3125 19.0625 0.71875 19.0625 1.25V2.90625C16.5938 3.34375 14.6875 5.53125 14.6875 8.125V13.6875C7.1875 15.375 2.28125 20.5625 1.84375 27.1875H1.25C0.71875 27.1875 0.3125 27.5938 0.3125 28.125C0.3125 28.6562 0.71875 29.0625 1.25 29.0625H38.75C39.2812 29.0625 39.6875 28.6562 39.6875 28.125C39.6875 27.5938 39.2812 27.1875 38.75 27.1875ZM36.2188 27.1875H28.75C28.5938 22.125 27.25 18 25.0625 15.5625C27.5625 16.1562 29.7812 17.1875 31.5938 18.5938C34.375 20.7812 35.9688 23.75 36.2188 27.1875ZM15.8125 15.375C16.25 15.2812 16.5625 14.9062 16.5625 14.4688V8.125C16.5625 6.21875 18.0938 4.6875 20 4.6875C21.9062 4.6875 23.4375 6.21875 23.4375 8.125V13.375C22.3438 13.2188 21.1875 13.125 20 13.125C19.4688 13.125 19.0625 13.5312 19.0625 14.0625C19.0625 14.5938 19.4688 15 20 15C23.8125 15 26.625 20.0625 26.8438 27.1875H13.125C13.1875 25.0625 13.4688 23.0938 14 21.375C14.1562 20.875 13.875 20.3438 13.375 20.2188C12.875 20.0625 12.3438 20.3437 12.2188 20.8438C11.6562 22.75 11.3438 24.875 11.2812 27.2188H3.75C4.15625 21.1875 8.6875 16.7188 15.8125 15.375Z" fill="#444B54"/>
<path d="M37.1875 39.6875C36.6562 39.6875 36.25 39.2812 36.25 38.75V31.875C36.25 31.3438 36.6562 30.9375 37.1875 30.9375C37.7188 30.9375 38.125 31.3438 38.125 31.875V38.75C38.125 39.2812 37.7188 39.6875 37.1875 39.6875Z" fill="#444B54"/>
<path d="M2.8125 39.6875C2.28125 39.6875 1.875 39.2812 1.875 38.75V31.875C1.875 31.3438 2.28125 30.9375 2.8125 30.9375C3.34375 30.9375 3.75 31.3438 3.75 31.875V38.75C3.75 39.2812 3.34375 39.6875 2.8125 39.6875Z" fill="#444B54"/>
<path d="M12.1875 39.6875C11.6562 39.6875 11.25 39.2812 11.25 38.75V31.875C11.25 31.3438 11.6562 30.9375 12.1875 30.9375C12.7188 30.9375 13.125 31.3438 13.125 31.875V38.75C13.125 39.2812 12.7188 39.6875 12.1875 39.6875Z" fill="#444B54"/>
<path d="M27.8125 39.6875C27.2812 39.6875 26.875 39.2812 26.875 38.75V31.875C26.875 31.3438 27.2812 30.9375 27.8125 30.9375C28.3438 30.9375 28.75 31.3438 28.75 31.875V38.75C28.75 39.2812 28.3438 39.6875 27.8125 39.6875Z" fill="#444B54"/>
<path d="M6.46876 22.9689C6.28126 22.9689 6.12501 22.9064 5.93751 22.8126C5.50001 22.5314 5.37501 21.9376 5.68751 21.5001C7.34376 18.9689 10 17.0626 13.3125 16.0001C13.8125 15.8439 14.3438 16.0939 14.5 16.5939C14.6563 17.0939 14.4063 17.6251 13.9063 17.7814C11 18.7189 8.68751 20.3751 7.25001 22.5314C7.09376 22.8126 6.78126 22.9689 6.46876 22.9689Z" fill="white"/>
</g>
<defs>
<clipPath id="clip0_1_2806">
<rect width="40" height="40" fill="white"/>
</clipPath>
</defs>
</svg>
