<svg width="40" height="40" viewBox="0 0 40 40" fill="none" xmlns="http://www.w3.org/2000/svg">
<path d="M32.1875 38.75H7.8125C6.78125 38.75 5.9375 37.9062 5.9375 36.875V12.5C5.9375 11.4688 6.78125 10.625 7.8125 10.625H32.1875C33.2188 10.625 34.0625 11.4688 34.0625 12.5V36.875C34.0625 37.9062 33.2188 38.75 32.1875 38.75Z" fill="#8CE5C3"/>
<path d="M21.3125 26.3749C19.9375 26.3749 19 25.1874 18.1563 24.1562C17.75 23.6249 17.125 22.8749 16.75 22.7812C16.5 22.9999 16.0625 23.6249 15.6875 24.1562C15.4063 24.5312 15.0938 24.9687 14.75 25.4062C14.4375 25.8124 13.8438 25.8749 13.4375 25.5624C13.0313 25.2499 12.9688 24.6562 13.2813 24.2499C13.5938 23.8437 13.9063 23.4062 14.1875 23.0312C15.1563 21.7187 15.6563 20.9999 16.4375 20.9062C17.8438 20.7187 18.7813 21.9062 19.625 22.9687C20.1875 23.6562 20.875 24.5312 21.375 24.4999C21.7188 24.4687 22.1563 24.0312 22.5938 23.6249C23.2813 22.9687 24.1563 22.1249 25.375 22.2499C25.7188 22.2812 26.0625 22.3749 26.4063 22.5624C26.875 22.7812 27.0625 23.3437 26.8438 23.8124C26.625 24.2812 26.0625 24.4687 25.5938 24.2499C25.4375 24.1874 25.3125 24.1249 25.2188 24.1249C24.875 24.0937 24.4063 24.5312 23.9375 24.9999C23.3125 25.5937 22.625 26.2812 21.625 26.3749C21.5 26.3749 21.4063 26.3749 21.3125 26.3749Z" fill="white"/>
<path d="M23.125 32.5H13.75C12.0312 32.5 10.625 33.9062 10.625 35.625V38.75H32.1875C33.2188 38.75 34.0625 37.9062 34.0625 36.875V16.25H32.5C30.7812 16.25 29.375 17.6562 29.375 19.375V26.25C29.375 29.6875 26.5625 32.5 23.125 32.5Z" fill="#4ABA8D"/>
<path d="M32.1875 9.6875H26.5C25.2188 5.59375 22.9688 0.3125 19.875 0.3125C16.3437 0.3125 14.2812 5.625 13.2188 9.6875H7.8125C6.25 9.6875 5 10.9375 5 12.5V36.875C5 38.4375 6.25 39.6875 7.8125 39.6875H32.1875C33.75 39.6875 35 38.4375 35 36.875V12.5C35 10.9375 33.75 9.6875 32.1875 9.6875ZM19.875 2.1875C21.4375 2.1875 23.2188 5.8125 24.5 9.6875H15.1875C16.2187 6 17.8438 2.1875 19.875 2.1875ZM33.125 36.875C33.125 37.4062 32.7188 37.8125 32.1875 37.8125H7.8125C7.28125 37.8125 6.875 37.4062 6.875 36.875V12.5C6.875 11.9688 7.28125 11.5625 7.8125 11.5625H12.7813C12.5 12.8125 12.375 13.7812 12.3125 14.125C12.25 14.625 12.5938 15.125 13.0938 15.1875C13.5938 15.25 14.0938 14.9062 14.1562 14.4062C14.2812 13.5938 14.4688 12.625 14.6875 11.5938H25.0625C25.3437 12.5938 25.5938 13.5938 25.8125 14.4688C25.9062 14.9062 26.2812 15.2188 26.7188 15.2188C26.7812 15.2188 26.8438 15.2188 26.9062 15.1875C27.4062 15.0625 27.7188 14.5625 27.625 14.0625C27.5312 13.5625 27.3125 12.6875 27 11.5625H32.1875C32.7188 11.5625 33.125 11.9688 33.125 12.5V36.875Z" fill="#444B54"/>
</svg>
